<svg width="58" height="58" viewBox="0 0 58 58" fill="none" xmlns="http://www.w3.org/2000/svg">
<g clip-path="url(#clip0)">
<path d="M47.9403 7.54282C45.8964 7.50462 43.8877 8.07303 42.172 9.17509C40.4563 10.2771 39.1119 11.8626 38.3114 13.7278C37.5109 15.593 37.2908 17.6529 37.6795 19.643C38.0681 21.6332 39.0477 23.4627 40.4925 24.8967C41.9373 26.3308 43.7814 27.3039 45.7879 27.6912C47.7945 28.0785 49.872 27.8622 51.7537 27.0702C53.6354 26.2781 55.2355 24.9465 56.3485 23.2462C57.4615 21.5459 58.0366 19.5545 58 17.5277C57.9525 14.8959 56.8776 12.3849 55.0016 10.5228C53.1255 8.66063 50.5943 7.59243 47.9403 7.54282ZM54.3964 17.8341C54.397 17.9513 54.3742 18.0675 54.3293 18.1758C54.2843 18.2842 54.2182 18.3827 54.1346 18.4656C54.051 18.5484 53.9517 18.614 53.8424 18.6586C53.7331 18.7031 53.616 18.7258 53.4978 18.7251H51.368C50.6783 18.7251 50.0169 18.9968 49.5292 19.4804C49.0415 19.964 48.7675 20.6199 48.7675 21.3039V23.4159C48.7675 23.6526 48.673 23.8797 48.5046 24.0476C48.3363 24.2154 48.1077 24.3103 47.869 24.3116H47.7074C47.4678 24.3116 47.238 24.2172 47.0686 24.0492C46.8992 23.8813 46.8041 23.6534 46.8041 23.4159V21.3133C46.8041 20.631 46.5314 19.9765 46.0458 19.4932C45.5601 19.0098 44.9011 18.7371 44.2131 18.7346H41.9882C41.8702 18.7346 41.7533 18.7115 41.6443 18.6667C41.5353 18.622 41.4363 18.5563 41.3528 18.4736C41.2694 18.3909 41.2032 18.2926 41.158 18.1845C41.1129 18.0764 41.0896 17.9606 41.0896 17.8436V17.6833C41.0896 17.447 41.1843 17.2203 41.3528 17.0532C41.5213 16.8861 41.7499 16.7923 41.9882 16.7923H44.2131C44.555 16.7923 44.8935 16.7254 45.2094 16.5955C45.5252 16.4656 45.8121 16.2753 46.0536 16.0353C46.2951 15.7954 46.4866 15.5105 46.617 15.1971C46.7474 14.8837 46.8142 14.5479 46.8136 14.2088V12.0167C46.8136 11.7791 46.9088 11.5513 47.0781 11.3833C47.2475 11.2153 47.4773 11.121 47.7169 11.121H47.8785C48.1172 11.1222 48.3458 11.2171 48.5141 11.385C48.6825 11.5528 48.777 11.7799 48.777 12.0167V14.2088C48.7764 14.5479 48.8432 14.8837 48.9736 15.1971C49.104 15.5105 49.2955 15.7954 49.537 16.0353C49.7786 16.2753 50.0654 16.4656 50.3813 16.5955C50.6971 16.7254 51.0356 16.7923 51.3775 16.7923H53.5074C53.6255 16.7916 53.7427 16.8143 53.852 16.8588C53.9613 16.9034 54.0606 16.969 54.1441 17.0518C54.2277 17.1347 54.2938 17.2332 54.3388 17.3416C54.3837 17.45 54.4065 17.5661 54.4059 17.6833L54.3964 17.8341Z" fill="white"/>
<path d="M16.3351 23.8873H26.4233C30.7531 23.8873 34.9059 25.592 37.9689 28.6267C41.0319 31.6614 42.7546 35.7779 42.7584 40.0715V52.3287C42.7584 53.8291 42.1573 55.268 41.0874 56.3289C40.0175 57.3898 38.5665 57.9858 37.0534 57.9858H5.70492C4.19188 57.9858 2.74081 57.3898 1.67093 56.3289C0.601052 55.268 0 53.8291 0 52.3287L0 40.0715C0.00378044 35.7779 1.72646 31.6614 4.78947 28.6267C7.85249 25.592 12.0052 23.8873 16.3351 23.8873Z" fill="white"/>
<path d="M21.3649 25.5798C28.4882 25.5798 34.2628 19.8535 34.2628 12.7899C34.2628 5.72623 28.4882 0 21.3649 0C14.2416 0 8.46704 5.72623 8.46704 12.7899C8.46704 19.8535 14.2416 25.5798 21.3649 25.5798Z" fill="white"/>
</g>
<defs>
<clipPath id="clip0">
<rect width="58" height="58" fill="white"/>
</clipPath>
</defs>
</svg>
